<?xml version="1.0" encoding="UTF-8"?><svg id="uuid-936850d0-bbe3-444d-9c1c-c37e085bd460" xmlns="http://www.w3.org/2000/svg" width="512" height="512" viewBox="0 0 512 512"><defs><style>.uuid-36306e59-5441-4628-91fa-bd3250bd08e7{fill:#8fb339;stroke:#758e4f;}.uuid-36306e59-5441-4628-91fa-bd3250bd08e7,.uuid-fd4529a4-cdd3-4500-a284-9998e2735255,.uuid-e5119dc5-f94b-451b-8cba-f07eac761b57{stroke-linecap:round;stroke-linejoin:round;stroke-width:6px;}.uuid-fd4529a4-cdd3-4500-a284-9998e2735255{fill:#86bbd8;stroke:#33658a;}.uuid-e5119dc5-f94b-451b-8cba-f07eac761b57{fill:#f6ae2d;stroke:#f26419;}.uuid-216019b1-bbb8-4363-9a71-493a97fc9867{fill:#758e4f;}.uuid-216019b1-bbb8-4363-9a71-493a97fc9867,.uuid-d17b41da-5146-4875-afbd-2923a35b5f2d,.uuid-745eb29d-9d3a-46a7-926f-a954755827e0,.uuid-4f3549de-4ee0-41d9-a428-805d30237d78,.uuid-35bef2ea-9c5c-463e-9eaa-bcbf208c31d1{stroke-width:0px;}.uuid-d17b41da-5146-4875-afbd-2923a35b5f2d{fill:#cbcbcb;}.uuid-745eb29d-9d3a-46a7-926f-a954755827e0{fill:#33658a;}.uuid-4f3549de-4ee0-41d9-a428-805d30237d78{fill:#fff;}.uuid-35bef2ea-9c5c-463e-9eaa-bcbf208c31d1{fill:#f26419;}</style></defs><g id="uuid-d6def1ac-9910-4f75-a36b-dec3eed2eb34"><rect class="uuid-4f3549de-4ee0-41d9-a428-805d30237d78" x="5" y="5" width="502" height="502" rx="45" ry="45"/><path class="uuid-d17b41da-5146-4875-afbd-2923a35b5f2d" d="m462,10c22.06,0,40,17.94,40,40v412c0,22.06-17.94,40-40,40H50c-22.06,0-40-17.94-40-40V50c0-22.06,17.94-40,40-40h412m0-10H50C22.39,0,0,22.39,0,50v412c0,27.61,22.39,50,50,50h412c27.61,0,50-22.39,50-50V50c0-27.61-22.39-50-50-50h0Z"/><path class="uuid-745eb29d-9d3a-46a7-926f-a954755827e0" d="m223.66,153.66c-.74-.94-1.98-1.35-3.13-1.04l-139.29,37.45c-.89.24-1.62.87-1.98,1.72l-23.01,54.1c-.39.91-.3,1.96.23,2.79.53.83,1.45,1.35,2.44,1.38l110.81,3.35s.06,0,.09,0c1.1,0,2.11-.6,2.64-1.57l51.49-94.9c.57-1.05.46-2.35-.28-3.29Z"/><path class="uuid-216019b1-bbb8-4363-9a71-493a97fc9867" d="m326.66,145.88c-.71-.93-1.9-1.36-3.04-1.11l-92.26,20.68c-1.02.23-1.85.97-2.18,1.96-.34.99-.13,2.08.54,2.89l49.73,59.7c.57.69,1.42,1.08,2.3,1.08.1,0,.21,0,.31-.02.99-.1,1.87-.7,2.34-1.58l42.53-80.38c.55-1.04.44-2.29-.27-3.22Z"/><path class="uuid-35bef2ea-9c5c-463e-9eaa-bcbf208c31d1" d="m415.19,151.6c-.69-1.02-1.95-1.51-3.15-1.24l-69.65,16c-1.03.24-1.85.99-2.18,2-.33,1-.1,2.1.59,2.9l32.71,37.59c.57.66,1.4,1.03,2.26,1.03.06,0,.11,0,.17,0,.93-.05,1.78-.53,2.3-1.29l36.94-53.59c.7-1.02.71-2.36.01-3.39Z"/><polygon class="uuid-fd4529a4-cdd3-4500-a284-9998e2735255" points="59 247.07 59 316.29 169.81 364.3 169.81 250.42 59 247.07"/><polygon class="uuid-e5119dc5-f94b-451b-8cba-f07eac761b57" points="375.77 308.27 453 287.26 453 214.69 412.7 153.29 375.77 206.88 375.77 308.27"/><polygon class="uuid-36306e59-5441-4628-91fa-bd3250bd08e7" points="281.74 228.09 324.28 147.7 375.77 206.88 375.77 308.27 281.74 333.85 281.74 228.09"/><polygon class="uuid-fd4529a4-cdd3-4500-a284-9998e2735255" points="169.81 250.42 221.3 155.52 281.74 228.09 281.74 333.85 169.81 364.3 169.81 250.42"/></g></svg>