<?xml version="1.0" encoding="UTF-8"?><svg id="uuid-3cef3d59-0fca-4797-a34e-518ee389007c" xmlns="http://www.w3.org/2000/svg" width="1931.68" height="1086.46" viewBox="0 0 1931.68 1086.46"><defs><style>.uuid-add1063f-e8a5-4e28-b6ce-b883c2a9f441{fill:#758e4f;}.uuid-add1063f-e8a5-4e28-b6ce-b883c2a9f441,.uuid-d15d4ec8-f74f-4f68-b20a-ec931069af27,.uuid-225697ab-0e37-4167-bac9-2d1ddcf944d3{stroke-width:0px;}.uuid-d15d4ec8-f74f-4f68-b20a-ec931069af27{fill:#33658a;}.uuid-225697ab-0e37-4167-bac9-2d1ddcf944d3{fill:#f26419;}.uuid-9b715880-2f98-4c98-8df3-2c54f91cbd5d{fill:#8fb339;stroke:#758e4f;}.uuid-9b715880-2f98-4c98-8df3-2c54f91cbd5d,.uuid-2b3b4d38-81c2-4c2c-9fe6-023d0811ddbb,.uuid-6057704b-ed36-4427-8df6-9408ea2d21c3{stroke-linecap:round;stroke-linejoin:round;stroke-width:29.13px;}.uuid-2b3b4d38-81c2-4c2c-9fe6-023d0811ddbb{fill:#86bbd8;stroke:#33658a;}.uuid-6057704b-ed36-4427-8df6-9408ea2d21c3{fill:#f6ae2d;stroke:#f26419;}</style></defs><g id="uuid-da6ced0f-52e4-49ad-9378-3d54bf2f6ab6"><g id="uuid-2539dda8-947a-43de-8b3d-69c17f2000b6"><path class="uuid-d15d4ec8-f74f-4f68-b20a-ec931069af27" d="m809.68,43.74c-3.57-4.59-9.56-6.59-15.11-5.08L121.96,221.46c-4.3,1.17-7.82,4.25-9.56,8.4L1.29,493.92c-1.88,4.44-1.45,9.57,1.11,13.62,2.56,4.05,7,6.59,11.78,6.74l535.08,16.35h.43c5.31,0,10.19-2.93,12.75-7.66L811.08,59.75c2.75-5.13,2.22-11.47-1.35-16.06l-.05.05Z"/><path class="uuid-add1063f-e8a5-4e28-b6ce-b883c2a9f441" d="m1307.04,5.76c-3.43-4.54-9.17-6.64-14.68-5.42l-445.51,100.94c-4.93,1.12-8.93,4.73-10.53,9.57-1.64,4.83-.63,10.15,2.61,14.11l240.14,291.4c2.75,3.37,6.86,5.27,11.11,5.27.48,0,1.01,0,1.5-.1,4.78-.49,9.03-3.42,11.3-7.71L1308.35,21.48c2.66-5.08,2.12-11.18-1.3-15.72h0Z"/><path class="uuid-225697ab-0e37-4167-bac9-2d1ddcf944d3" d="m1734.54,33.68c-3.33-4.98-9.42-7.37-15.21-6.05l-336.33,78.1c-4.97,1.17-8.93,4.83-10.53,9.76-1.59,4.88-.48,10.25,2.85,14.16l157.95,183.48c2.75,3.22,6.76,5.03,10.91,5.03h.82c4.49-.24,8.6-2.59,11.11-6.3l178.38-261.58c3.38-4.98,3.43-11.52.05-16.55v-.05Z"/><polygon class="uuid-2b3b4d38-81c2-4c2c-9fe6-023d0811ddbb" points="14.56 499.68 14.56 837.55 549.64 1071.89 549.64 516.03 14.56 499.68"/><polygon class="uuid-6057704b-ed36-4427-8df6-9408ea2d21c3" points="1544.19 798.4 1917.11 695.85 1917.11 341.63 1722.51 41.93 1544.19 303.51 1544.19 798.4"/><polygon class="uuid-9b715880-2f98-4c98-8df3-2c54f91cbd5d" points="1090.13 407.04 1295.55 14.64 1544.19 303.51 1544.19 798.4 1090.13 923.26 1090.13 407.04"/><polygon class="uuid-2b3b4d38-81c2-4c2c-9fe6-023d0811ddbb" points="549.64 516.03 798.28 52.81 1090.13 407.04 1090.13 923.26 549.64 1071.89 549.64 516.03"/></g></g></svg>