<?xml version="1.0" encoding="UTF-8"?><svg id="uuid-90e2acdf-b2da-4029-be1f-f583438ce15a" xmlns="http://www.w3.org/2000/svg" width="1000" height="555.68" viewBox="0 0 1000 555.68"><defs><style>.uuid-dc3a4b2a-636c-49f7-ac1d-1a6807069e09{fill:#86bbd8;stroke:#33658a;}.uuid-dc3a4b2a-636c-49f7-ac1d-1a6807069e09,.uuid-1316b919-abe6-4fc8-8aee-3b36a5cd9659,.uuid-8d924c22-3e59-4d8c-8a41-b5468215306d{stroke-linecap:round;stroke-linejoin:round;stroke-width:8px;}.uuid-1316b919-abe6-4fc8-8aee-3b36a5cd9659{fill:#8fb339;stroke:#758e4f;}.uuid-8d924c22-3e59-4d8c-8a41-b5468215306d{fill:#f6ae2d;stroke:#f26419;}.uuid-6f6d88b1-c175-4735-9862-f780dced1475,.uuid-d14187eb-f3fd-493c-b47c-034523c34ab7,.uuid-4a40f4b1-ba4c-48c7-bc57-e1e91d88ddd0,.uuid-8c8cd003-91ba-46c9-986d-f1f5e7324363{stroke-width:0px;}.uuid-d14187eb-f3fd-493c-b47c-034523c34ab7{fill:#758e4f;}.uuid-4a40f4b1-ba4c-48c7-bc57-e1e91d88ddd0{fill:#33658a;}.uuid-8c8cd003-91ba-46c9-986d-f1f5e7324363{fill:#f26419;}</style></defs><g id="uuid-75a1a832-3d7f-49bb-8de0-e89493f870c2"><path class="uuid-4a40f4b1-ba4c-48c7-bc57-e1e91d88ddd0" d="m441.09,15.59c-.99-1.25-2.64-1.79-4.18-1.38l-249.07,67.44c-1.19.32-2.16,1.17-2.64,2.3l-41.14,97.42c-.51,1.22-.39,2.61.32,3.72s1.93,1.8,3.25,1.84l198.14,6.04s.08,0,.12,0c1.47,0,2.82-.81,3.52-2.1L441.48,19.97c.76-1.41.61-3.13-.39-4.38Z"/><path class="uuid-d14187eb-f3fd-493c-b47c-034523c34ab7" d="m625.26,1.57c-.95-1.24-2.53-1.81-4.05-1.47l-164.98,37.25c-1.36.31-2.46,1.29-2.9,2.61-.45,1.32-.18,2.77.7,3.84l88.92,107.52c.76.92,1.9,1.45,3.08,1.45.14,0,.28,0,.41-.02,1.33-.14,2.5-.93,3.13-2.12L625.63,5.86c.73-1.38.58-3.06-.37-4.3Z"/><path class="uuid-8c8cd003-91ba-46c9-986d-f1f5e7324363" d="m783.51,11.8c-.93-1.36-2.6-2.01-4.21-1.64l-124.54,28.81c-1.37.32-2.47,1.32-2.9,2.66s-.14,2.8.78,3.86l58.49,67.7c.76.88,1.87,1.38,3.03,1.38.07,0,.15,0,.22,0,1.24-.07,2.38-.71,3.08-1.73l66.06-96.51c.93-1.36.93-3.15,0-4.51Z"/><polygon class="uuid-dc3a4b2a-636c-49f7-ac1d-1a6807069e09" points="147.74 182.94 147.74 307.6 345.89 394.06 345.89 188.98 147.74 182.94"/><polygon class="uuid-8d924c22-3e59-4d8c-8a41-b5468215306d" points="714.16 293.17 852.26 255.32 852.26 124.64 780.21 14.05 714.16 110.56 714.16 293.17"/><polygon class="uuid-1316b919-abe6-4fc8-8aee-3b36a5cd9659" points="546.03 148.77 622.09 4 714.16 110.56 714.16 293.17 546.03 339.23 546.03 148.77"/><polygon class="uuid-dc3a4b2a-636c-49f7-ac1d-1a6807069e09" points="345.89 188.98 437.96 18.08 546.03 148.77 546.03 339.23 345.89 394.06 345.89 188.98"/><path class="uuid-6f6d88b1-c175-4735-9862-f780dced1475" d="m0,526.9h27.24l.16,1.56c.31,3.89,3.73,6.22,13.86,6.22s13.23-1.71,13.23-5.44v-.78c0-3.89-3.11-4.66-8.57-5.44l-21.01-2.96c-14.48-2.02-23.34-9.49-23.34-25.03v-2.34c0-16.32,14.01-25.65,38.91-25.65,28.02,0,38.13,11.66,38.91,28.77h-27.24l-.16-1.56c-.47-4.66-3.58-6.99-12.3-6.99s-11.68,2.34-11.68,5.44v.78c0,2.96,2.64,4.66,8.57,5.44l18.68,2.49c21.01,2.8,26.47,12.6,26.47,25.5v2.34c0,17.1-15.1,26.43-40.47,26.43S.79,549.45.01,526.9h-.01Z"/><path class="uuid-6f6d88b1-c175-4735-9862-f780dced1475" d="m148.66,519.13h28.02c0,19.44-11.68,36.54-41.24,36.54s-44.37-18.66-44.37-41.98v-4.66c0-23.32,14.01-41.98,44.37-41.98s41.24,17.1,41.24,35.76h-28.02l-.16-2.34c-.31-5.44-3.73-10.11-13.08-10.11-10.12,0-14.01,4.66-14.01,16.32v9.33c0,11.66,3.89,16.32,14.01,16.32,9.34,0,12.77-5.44,13.08-10.89l.16-2.34h0Z"/><path class="uuid-6f6d88b1-c175-4735-9862-f780dced1475" d="m273.81,496.42v56.9h-29.58v-47.42c0-10.11-3.89-13.99-13.23-13.99s-13.23,3.89-13.23,13.99v47.42h-29.58v-113.5h29.58v48.19h1.56c4.2-14.14,11.68-20.99,26.78-20.99,17.9,0,27.71,8.4,27.71,29.39h0Z"/><path class="uuid-6f6d88b1-c175-4735-9862-f780dced1475" d="m376.56,509.02v4.66c0,23.32-14.79,41.98-45.14,41.98s-45.14-18.66-45.14-41.98v-4.66c0-23.32,14.79-41.98,45.14-41.98s45.14,18.66,45.14,41.98Zm-45.14,23.32c9.34,0,14.79-3.11,14.79-16.32v-9.33c0-13.21-5.44-16.32-14.79-16.32s-14.79,3.11-14.79,16.32v9.33c0,13.21,5.44,16.32,14.79,16.32Z"/><path class="uuid-6f6d88b1-c175-4735-9862-f780dced1475" d="m476.18,509.02v4.66c0,23.32-14.79,41.98-45.14,41.98s-45.14-18.66-45.14-41.98v-4.66c0-23.32,14.79-41.98,45.14-41.98s45.14,18.66,45.14,41.98Zm-45.14,23.32c9.34,0,14.79-3.11,14.79-16.32v-9.33c0-13.21-5.44-16.32-14.79-16.32s-14.79,3.11-14.79,16.32v9.33c0,13.21,5.44,16.32,14.79,16.32Z"/><path class="uuid-6f6d88b1-c175-4735-9862-f780dced1475" d="m574.26,496.42v56.9h-29.58v-47.42c0-10.11-3.89-13.99-13.23-13.99s-13.23,3.89-13.23,13.99v47.42h-29.58v-83.96h29.58v18.66h1.56c4.2-14.14,11.68-20.99,26.78-20.99,17.9,0,27.71,8.4,27.71,29.39h0Z"/><path class="uuid-6f6d88b1-c175-4735-9862-f780dced1475" d="m589.82,439.83h29.58v113.5h-29.58v-113.5Z"/><path class="uuid-6f6d88b1-c175-4735-9862-f780dced1475" d="m631.86,513.69v-4.66c0-23.32,14.01-41.98,45.14-41.98s42.02,18.66,42.02,38.88v10.11h-58.37c0,12.44,4.67,17.1,16.34,17.1,9.34,0,13.54-4.66,13.86-8.55l.16-2.34h28.02c0,17.1-12.46,33.43-42.81,33.43s-44.37-18.66-44.37-41.98h0Zm58.83-13.21c-1.09-9.02-5.76-12.44-14.48-12.44-9.34,0-14.17,3.43-15.26,12.44h29.73Z"/><path class="uuid-6f6d88b1-c175-4735-9862-f780dced1475" d="m720.58,469.37h31.13l16.19,48.19h1.56l13.39-48.19h30.36l-30.51,83.96h-30.36l-31.76-83.96Z"/><path class="uuid-6f6d88b1-c175-4735-9862-f780dced1475" d="m814.77,513.69v-4.66c0-23.32,14.01-41.98,45.14-41.98s42.02,18.66,42.02,38.88v10.11h-58.37c0,12.44,4.67,17.1,16.34,17.1,9.34,0,13.54-4.66,13.86-8.55l.16-2.34h28.02c0,17.1-12.46,33.43-42.81,33.43s-44.37-18.66-44.37-41.98h0Zm58.83-13.21c-1.09-9.02-5.76-12.44-14.48-12.44-9.34,0-14.17,3.43-15.26,12.44h29.73Z"/><path class="uuid-6f6d88b1-c175-4735-9862-f780dced1475" d="m1000,496.42v56.9h-29.58v-47.42c0-10.11-3.89-13.99-13.23-13.99s-13.23,3.89-13.23,13.99v47.42h-29.58v-83.96h29.58v18.66h1.56c4.2-14.14,11.68-20.99,26.78-20.99,17.9,0,27.71,8.4,27.71,29.39h0Z"/></g></svg>