<?xml version="1.0" encoding="utf-8"?>
<!-- Generator: Adobe Illustrator 28.0.0, SVG Export Plug-In . SVG Version: 6.00 Build 0)  -->
<svg version="1.1" id="uuid-9b555942-ba27-4153-8c11-e68ddc00512e"
	 xmlns="http://www.w3.org/2000/svg" xmlns:xlink="http://www.w3.org/1999/xlink" x="0px" y="0px" viewBox="0 0 174.6 430.9"
	 style="enable-background:new 0 0 174.6 430.9;" xml:space="preserve">
<style type="text/css">
	.st0{fill:#FFFFFF;}
</style>
<g id="uuid-23207e5a-e84b-4c81-82ab-25ec935255b7">
	<path class="st0" d="M133.8,134.2c-5.9,11.5-3.1,22.3-3.1,33c0.1,12.9,0.1,25.8,0.4,38.6c0.4,12.3,0.9,24.7,1.8,37
		c0.9,13.1,0.6,28.4,1.6,41.6c0.6,7.9,0.8,15.8,1.3,23.8c0.1,1.4,0.6,2.7,0.8,4.1c2.4,15.5,0.4,31.4,2.7,47c0.9,6.2,2.5,12.5,2,18.6
		c-1.3,15.6,2.6,26.3-1.4,41.7c-1.1,4.4-3.8,6.1-7.8,6.9c-6,1.2-7.6,0.4-13.6,1.9c-5.2,1.2-11.7-2.3-12.5-7.6
		c-1.2-8,0.9-11.8,0.1-19.8c-0.3-2.8-0.4-5.6-1.1-8.3c-1.7-6.7-0.9-13.4-0.7-20.2c0.2-9.3-0.9-18.7-1-28c-0.1-6.8,0.5-13.6,0.7-20.4
		c0.2-8.4-2.9-16.6-2.9-25c0-5.8,0.2-11.7-0.2-17.5c-0.6-8.4-1.6-16.7-2.4-25.1c0-0.4-0.1-0.9-0.3-1.2c-1.3-1.8-2.1-3.3-3.9-4.3
		c-0.9-0.5-5.6,0.2-7.1,1.2c-1.4,0.9-2.1,7.1-1.9,9.6c0.6,6.8,2,18.7,2.7,25.5c0.5,5.5,0.7,11.1,1,16.6c0.3,6.1,0.8,12.3,1,18.4
		c0.3,10.9,0.7,21.9,0.8,32.8c0.1,16.5,0,33-0.2,49.5c-0.1,6-0.5,12-1.1,17.9c-0.4,4.1-5.1,7.1-10.8,7.6c-2.2,0.2-4.5,0.4-6.7,0.7
		c-11.5,1.4-17.1-5.5-17.9-14.8c-1-12.3-0.6-24.8-0.8-37.2c-0.1-7.9,0-15.8-0.2-23.7c-0.3-10.8-1.1-21.6-1.3-32.4
		c-0.2-7.9,1.3-16,0.3-23.8c-2.8-22-3-43.9-2.9-66c0-5-1-9.9-1.2-14.9c-0.3-6.2-0.1-12.4-0.3-18.6c-0.2-6.8-0.5-13.6-1-20.4
		c-0.4-5.5-1.2-11.1-2-16.6c-1-7.3-2.1-14.6-3.3-21.9c-0.2-1-1.1-1.9-1.8-3c-4,1.7-6.4,4.4-6.1,8.5c0.7,11.3,1.8,22.5,2.5,33.8
		c0.7,9.8,1.2,19.7,1.5,29.5c0.2,5.4-0.1,10.9-0.6,16.3c-0.4,5.1-0.9,10.3-2,15.4c-1.2,5.8-11.1,8.8-16.4,6.2
		c-12.4-6.1-14.2-17.7-15.8-29.3c-1.2-8.9-2.3-17.8-2.7-26.7c-0.3-7,0.6-14.1,1-21.1c0.2-2.6,0.5-5.2,0.9-7.9
		c0.8-6.6,1.5-13.2,2.4-19.7c1.3-10,2.7-20.1,4.2-30.1c1.8-12.4,9.7-19,21.1-22.5c8-2.4,15.8-5.5,23.9-7.8c4.9-1.4,10-2.1,15.1-2.8
		c18.8-2.4,37.5-1.7,56.2,1.6c4.8,0.9,9.7,0.9,14.4,2.1c6.2,1.5,10.9,5.8,14.6,10.8c4.5,6.1,9.5,12.1,12.3,18.9
		c2.5,6.2,2.3,13.4,3.4,20.2c0.6,4.2,1.3,8.4,2,12.6c0.3,1.6,0.9,3.3,0.7,4.9c-1.8,13-0.3,26.1,0.8,38.9c1,10.5,0.2,21,1.5,31.4
		c0.5,3.6-0.1,7.6-1,11.2c-0.6,2.4-2.8,4.4-4.5,6.4c-0.9,1-2.2,1.7-3.4,2.3c-9.1,4.9-19-0.5-20.1-10.8c-0.8-6.9-2-13.8-2.6-20.7
		c-0.6-6.8-0.8-13.6-0.8-20.5c0-8.8,0.7-17.6,0.3-26.3c-0.3-7.2-1.5-14.5-3.1-21.5C138.7,138.4,135.9,136.6,133.8,134.2L133.8,134.2
		z M47.7,34.2c0-45.7,66.9-45.8,66.9,1.3C114.6,64.3,47.7,87.1,47.7,34.2z"/>
</g>
</svg>
