<?xml version="1.0" encoding="utf-8"?>
<!-- Generator: Adobe Illustrator 28.0.0, SVG Export Plug-In . SVG Version: 6.00 Build 0)  -->
<svg version="1.1" id="uuid-ae956272-8361-4500-8801-4ee4519f41f9"
	 xmlns="http://www.w3.org/2000/svg" xmlns:xlink="http://www.w3.org/1999/xlink" x="0px" y="0px" viewBox="0 0 531.3 503.8"
	 style="enable-background:new 0 0 531.3 503.8;" xml:space="preserve">
<style type="text/css">
	.st0{fill:#FFFFFF;}
</style>
<g id="uuid-b9a407d1-c41d-4cc2-887e-dee912dcb251">
	<path class="st0" d="M407.7,220.6c-8.9-3.8-18.3-3.8-28.1-2.6c0.2,0-0.2-0.1-0.4-0.3c-7.8-14.3-15.5-28.8-23.5-43
		c-3.3-5.9-6-12.7-13.2-15.2c-12-4.1-23.8-8.7-36.1-11.6c-6.9-1.7-14.5-0.2-21.8-0.1c-4.2,0.1-8.5,0.6-12.7,0.4
		c-7.1-0.3-14.2-1.3-21.3-1.5c-4.6-0.1-9.2,0.4-13.7,1.3c-8.8,1.9-17.9-3.3-26.6,1.1c-1.8,1-3.7,2.5-5.6,2.6
		c-6.4,0.3-11.5,3-16.8,6.2c-7.3,4.4-12.5,10.2-16.4,17.7c-4.4,8.4-9.8,16.2-14.4,24.4c-3.3,6-6,12.3-8.9,18.5
		c-1.1,2.4-1.8,4.6-5.4,5c-6.3,0.6-12.6,2.6-18.9,3c-5.2,0.4-8.3,2.1-8.9,7.4c-0.4,4.6-2,9.5-0.8,13.6c2.6,9.1,10.4,12.7,20.5,10.6
		c5-1,5.7-0.4,5.8,4.8c0,1.6-0.5,3.3-0.7,4.9c-0.7,6.8-1.7,13.5-2.1,20.2c-0.3,5.3,0.8,10.7,0.2,15.9c-1.4,11,2.5,19.7,10.9,26.4
		c7.3,5.8,11,13.2,9.9,22.2c-0.9,7.8,6.4,18,14.3,17.9c5,0,10.1,0,15-1.1c3.2-0.7,5.9-2.4,7-7c1.8-7.6-0.5-14.5-1.1-21.6
		c-0.5-6.6,0.3-7.7,6.6-6.5c0.8,0.2,1.6,0.7,2.5,0.9c4.7,1,9.4,2.2,14.2,2.8c7.5,1,15-2.8,22.6,0.6c2.7,1.2,6.2,1.2,9.3,1.2
		c6.7,0.1,13.5-0.3,20.2-0.2c8.2,0.1,16.4,0.6,24.6,0.7c3.6,0,7.3-0.2,10.8-0.9c5.7-1.2,11.4-2.7,17.1-4.4c3.8-1.1,6.3,0.3,7,3.8
		c0.9,4.6,2,9.5,1.2,13.9c-0.9,5.2,2.1,7.4,4.9,10c1.4,1.3,3.4,2.1,5.3,2.6c6.1,1.6,12.4,3.4,18-1.8c7.3-6.7,13.1-14.2,13.5-24.7
		c0.1-4.6,1.3-7.7,6.9-8c5.9-0.3,10-3.5,12.9-9c5.7-10.9,4.2-21.9,2.6-33.2c-1.5-10.7-2.7-21.5-4-31.4c5.6-3.2,10.2-7,15.6-8.7
		c6.6-2.2,8.9-7.6,11.1-12.7C419.4,229.6,415.8,224,407.7,220.6z M212.7,295.8c-4.9,10.5-10.8,15.2-21.8,14.7v0
		c-3-0.7-6.3-0.7-8.7-2.1c-13.4-7.8-15.2-15.7-7.3-29.8c3.3-5.9,5.8-12.2,15.9-9.4c7.1,1.9,13.7,3.7,19.3,8.4
		C214.9,281.6,215.8,289.2,212.7,295.8z M293.9,230.4c-2.2,0.2-4.8,0.9-7,0.8c-3.7,2.6-5.5,0-9,0.9c-0.4,0.6-1.6,0.9-2.4,0.9
		c-12.1,0.3-24.1,0.4-36.2,0.7c-1.4,0-2.8,0-4.1,0.5c-9.4,3.1-18.7,1-28,0c-2-0.2-4.1-1-5.9-0.6c-7.1,1.5-13.5-1.2-20.1-2.8
		c-3.5-0.9-4.7-3.2-4.5-7.2c0.7-13.3,9.5-22.5,15.7-33.1c2.2-3.7,5.3-7.3,8.7-9.9c2.4-1.8,6-2.3,9.2-2.6c10.2-0.9,20.4-1.5,30.6-2.1
		c8.5-0.6,17.1-1.3,25.6-1.5c6.4-0.2,12.8,0.2,19.1,0.7c9.4,0.7,19.1,0.5,28,2.9c8.6,2.2,16.5,6.6,17.7,17.8
		c0.9,8.4,4.1,16.8,6.4,25.9l0,0c-3.9,5.8-11,4.8-17,5.9C311.9,229.2,302.9,229.6,293.9,230.4z M348,314.1
		c-6.7,0.2-14.4,0.2-18.6-5.1c-4.3-3.5-5.4-3.7-8.1-9.2c-0.5-1,0-10.2,0.2-11.3c2.2-10.3,12.8-17.8,23.4-16.6
		c10.3,1.1,18.4,7.8,21.2,17.7c0.6,2,0.5,4.2,0.7,6.3C366.7,305.5,358.3,313.6,348,314.1z"/>
	<path class="st0" d="M116.1,177.5c-2.4,0-4.8-0.6-7.1-1.8c-7.3-3.9-10.1-13-6.2-20.3l76.8-143.8C183.5,4.5,190.9,0,199,0h128.1
		c8.2,0,15.6,4.5,19.4,11.7l54.6,102.2c3.9,7.3,1.1,16.4-6.2,20.3c-7.3,3.9-16.4,1.1-20.3-6.2l-52.3-98H203.8l-74.5,139.5
		C126.6,174.6,121.4,177.5,116.1,177.5z M320,25.8C320,25.8,320.1,25.8,320,25.8z"/>
	<path class="st0" d="M404.5,165.7c-15.8-12.7-34.2-25.3-52-34.8c-6-3.2-4.4-12.1,2.3-13.1l26.7-3.8c1.6-0.2,3.1-1,4.2-2.2l18-20
		c4.5-5,12.8-1.3,12.2,5.4c-2,20-1.8,42.4,0,62.5C416.4,165.8,409.3,169.6,404.5,165.7L404.5,165.7z M445.1,484h-0.5l-112.2-2.6
		c-8.3-0.2-14.8-7.1-14.7-15.3c0.2-8.3,7.1-14.9,15.3-14.7l107.4,2.5L500.1,348l-83.5-141.1c-4.2-7.1-1.9-16.3,5.3-20.5
		c7.1-4.2,16.3-1.9,20.5,5.3l85.9,145.1c4,6.7,4.1,15.2,0.3,22l-64.2,114.1C460.4,479.8,453.1,484,445.1,484L445.1,484z"/>
	<path class="st0" d="M285.6,458.9c18.8-7.6,38.9-17.4,55.8-28.2c5.7-3.6,12.7,2.1,10.3,8.4l-9.7,25.1c-0.6,1.5-0.6,3.2-0.1,4.8
		l8.6,25.5c2.2,6.4-5.1,11.9-10.7,8c-16.5-11.6-36-22.3-54.5-30.7C279.7,469.2,279.9,461.2,285.6,458.9L285.6,458.9z M86.2,484
		c-7.9,0-15.2-4.3-19.2-11.2L2.8,358.7c-3.8-6.8-3.7-15.3,0.2-22l59-99.8c4.2-7.1,13.4-9.5,20.5-5.3s9.5,13.4,5.3,20.5L31.2,348
		l59.6,106h157.3c8.3,0,15,6.7,15,15s-6.7,15-15,15H86.2z"/>
	<path class="st0" d="M93.6,200.6c-16.3,12-35.3,23.8-53.5,32.5c-6.1,2.9-4.9,11.9,1.7,13.2l26.5,5c1.6,0.3,3.1,1.2,4.1,2.4
		l17.1,20.8c4.3,5.2,12.8,1.9,12.4-4.9c-1.1-20.1,0.1-42.4,2.7-62.5C105.4,201,98.5,197,93.6,200.6z"/>
</g>
</svg>
