<svg width="100" height="100" viewBox="0 0 100 100" fill="none" xmlns="http://www.w3.org/2000/svg">
<rect width="100" height="100" rx="10" fill="#33658A"/>
<path d="M19.2935 31.314C19.2935 28.8774 21.3556 26.9022 23.8994 26.9022H76.1005C78.6443 26.9022 80.7065 28.8774 80.7065 31.314C80.7065 33.7505 78.6443 35.7258 76.1005 35.7258H23.8994C21.3556 35.7258 19.2935 33.7505 19.2935 31.314Z" fill="white"/>
<path d="M19.2935 72.4905C19.2935 70.0539 21.3556 68.0787 23.8994 68.0787H76.1005C78.6443 68.0787 80.7065 70.0539 80.7065 72.4905C80.7065 74.927 78.6443 76.9022 76.1005 76.9022H23.8994C21.3556 76.9022 19.2935 74.927 19.2935 72.4905Z" fill="white"/>
<path d="M19.2935 51.9022C19.2935 49.4657 21.3556 47.4905 23.8994 47.4905H76.1005C78.6443 47.4905 80.7065 49.4657 80.7065 51.9022C80.7065 54.3388 78.6443 56.314 76.1005 56.314H23.8994C21.3556 56.314 19.2935 54.3388 19.2935 51.9022Z" fill="white"/>
</svg>
