<?xml version="1.0" encoding="utf-8"?>
<!-- Generator: Adobe Illustrator 28.0.0, SVG Export Plug-In . SVG Version: 6.00 Build 0)  -->
<svg version="1.1" id="Layer_1" xmlns="http://www.w3.org/2000/svg" xmlns:xlink="http://www.w3.org/1999/xlink" x="0px" y="0px"
	 viewBox="0 0 448 332" style="enable-background:new 0 0 448 332;" xml:space="preserve">
<style type="text/css">
	.st0{fill:#33658A;}
</style>
<path class="st0" d="M0,32C0,14.3,14.3,0,32,0h384c17.7,0,32,14.3,32,32s-14.3,32-32,32H32C14.3,64,0,49.7,0,32z M0,166
	c0-17.7,14.3-32,32-32h384c17.7,0,32,14.3,32,32s-14.3,32-32,32H32C14.3,198,0,183.7,0,166z M448,300c0,17.7-14.3,32-32,32H32
	c-17.7,0-32-14.3-32-32s14.3-32,32-32h384C433.7,268,448,282.3,448,300z"/>
</svg>
