<?xml version="1.0" encoding="utf-8"?>
<!-- Generator: Adobe Illustrator 28.0.0, SVG Export Plug-In . SVG Version: 6.00 Build 0)  -->
<svg version="1.1" id="uuid-ca70f0aa-4464-4f0b-8271-f0b8230ed2b6"
	 xmlns="http://www.w3.org/2000/svg" xmlns:xlink="http://www.w3.org/1999/xlink" x="0px" y="0px" viewBox="0 0 214.3 327.3"
	 style="enable-background:new 0 0 214.3 327.3;" xml:space="preserve">
<style type="text/css">
	.st0{fill:#FFFFFF;}
</style>
<g id="uuid-9e572028-0ee0-49de-9ab9-341ca5f82383">
	<path class="st0" d="M117.7,205.7c-1.4-2.8-5.2-3.4-7.3-1.1s-3.3,4.8-3.7,8.2c-0.8,6.4-2.9,12.6-4.2,19c-1.4,6.9-2.5,13.9-3.5,20.8
		c-2.6,16.9-8.2,32.7-15.7,48c-1.2,2.4-1.7,5.1-2.5,7.7c-2.7,8.9-9.1,14.2-17.4,17.7c-8.8,3.7-18.1-1.4-19.1-10.9
		c-1.1-10.6,1.2-20,7.1-29.2c4-6.3,5-14.4,7.6-21.6c3.7-10.6,7.8-21.1,11.2-31.8c3.4-10.9,6.5-21.9,9-33.1c0.8-3.3-1.3-7.1-1.2-10.6
		c0.5-18,0.7-36,2.1-53.9c1.1-13.7-3.4-25.1-11.6-35.2C55,83.2,41.2,66.9,27,51c-7.2-8-15.5-15-23.2-22.6C0.4,25-1.4,11.4,1.4,7.5
		c0.9-1.2,3.1-2.1,4.8-2.2c16.7-0.7,30.4,5.7,41,18.5c15.1,18.2,30,36.7,45.2,54.8c1.2,1.5,4.4,1.2,6.6,2.1
		c14.5,5.9,23.2-2.9,31.6-12.4c10.4-11.8,20.8-23.6,31.2-35.4c1.9-2.2,3.5-4.8,5.5-6.9c6.6-7.2,12.8-14.8,20.1-21.2
		c5.6-4.9,13.1-5.5,20.4-4.1c5.4,1.1,7.5,6.1,6.3,13.1c-1.6,9.5-6.7,17.2-12.6,24.3c-15.4,18.6-31.1,37-46.3,55.8
		c-5.6,6.9-7.9,15-6.7,24.1c0.6,4.7-0.6,9.6-0.4,14.4c0.2,4.8,1.3,9.5,1.8,14.3c1.6,17.1,3,34.2,4.7,51.2
		c1.8,17.3,3.8,34.6,5.8,51.9c1.8,15.4,4.2,30.7,5.1,46.1c0.4,6.5-1.5,13.3-3.5,19.6c-1.9,6-7.3,8.1-13.7,6.8
		c-3.4-0.7-7.3-0.8-10.1-2.6c-4.3-2.7-6.2-6.9-6.6-12.6c-1.5-20.7-3.8-41.3-6.3-61.9c-1.5-12-3.9-23.9-6.2-35.8
		C118.9,208.2,118.3,207,117.7,205.7L117.7,205.7z"/>
	<path class="st0" d="M107.6,65.4c-34,4.4-39-54.1-5.5-57.7c0.2,0,0.4-0.1,0.6-0.1c46.2-11.8,51.9,61.4,5.9,57.8
		C108.2,65.3,107.9,65.3,107.6,65.4L107.6,65.4z"/>
</g>
</svg>
