<?xml version="1.0" encoding="utf-8"?>
<!-- Generator: Adobe Illustrator 28.0.0, SVG Export Plug-In . SVG Version: 6.00 Build 0)  -->
<svg version="1.1" id="uuid-2c70c3ea-8f7f-4fd8-9667-455d4d4bae47"
	 xmlns="http://www.w3.org/2000/svg" xmlns:xlink="http://www.w3.org/1999/xlink" x="0px" y="0px" viewBox="0 0 200 200"
	 style="enable-background:new 0 0 200 200;" xml:space="preserve">
<style type="text/css">
	.st0{fill:#FFFFFF;}
</style>
<path class="st0" d="M164.5,89.1c70.5,18.1,0.8,121-52.3,67.8c-27-27,7-67.9,19.6-86c11.1-15.9,55.4-51.5,65.9-41
	c5.8,5.8-0.5,13.6-3.5,16.6C185.2,55.9,169,70.9,164.5,89.1L164.5,89.1z M62.5,89.1c70.5,18.1,0.8,121-52.3,67.8
	c-27-27,7-67.9,19.6-86c11.1-15.9,55.4-51.5,65.9-41c5.8,5.8-0.5,13.6-3.5,16.6C83.2,55.9,67,70.9,62.5,89.1L62.5,89.1z"/>
</svg>
