<?xml version="1.0" encoding="utf-8"?>
<!-- Generator: Adobe Illustrator 28.0.0, SVG Export Plug-In . SVG Version: 6.00 Build 0)  -->
<svg version="1.1" id="Layer_1" xmlns="http://www.w3.org/2000/svg" xmlns:xlink="http://www.w3.org/1999/xlink" x="0px" y="0px"
	 viewBox="0 0 487.8 442.4" style="enable-background:new 0 0 487.8 442.4;" xml:space="preserve">
<style type="text/css">
	.st0{fill:#FFFFFF;}
</style>
<path class="st0" d="M406.1,162.2v141.9c0,8.6-7,15.7-15.7,15.7s-15.7-7-15.7-15.7V169c0-0.2-0.1-0.3-0.2-0.5L244.4,38.3
	c-0.3-0.3-0.7-0.3-1,0L113.2,168.5c-0.1,0.1-0.2,0.3-0.2,0.5v135.2c0,8.6-7,15.7-15.7,15.7s-15.7-7-15.7-15.7v-142
	c0-4.1,1.7-8.2,4.6-11.1L232.8,4.6c3-3,6.9-4.6,11.1-4.6c4.2,0,8.1,1.6,11.1,4.6l146.5,146.5C404.5,154.1,406.1,158,406.1,162.2
	L406.1,162.2z"/>
<path class="st0" d="M403.8,375.7c-1.2,0-2.3,0-3.5-0.1c-20.6-0.8-33.8-8.1-45.5-14.6c-10.8-6-19.4-10.8-33.8-10.8h-0.2
	c-13.9,0-21.2,4.5-30.4,10c-10.5,6.3-23.6,14.3-45.4,13.6c-23.2-0.7-36.7-10.3-47.5-18.1c-9.3-6.7-16.6-11.9-30.2-12.5
	c-14-0.6-22.7,4.3-33.7,10.4c-12.2,6.8-26.1,14.5-47.5,15c-27.2,0.7-54.4-10.5-80.8-33.4c-6.3-5.4-7-14.9-1.5-21.2
	c5.4-6.3,14.9-7,21.2-1.5c20.6,17.8,40.9,26.6,60.4,26.1c14.1-0.4,23.2-5.4,33.8-11.3c12.7-7,27.1-15,49.5-14.1
	c22.6,0.9,35.9,10.5,46.5,18.1c9.7,7,16.8,12.1,30.8,12.5c13,0.4,19.7-3.7,29-9.3c10.5-6.4,23.7-14.3,45.9-14.4h0.3
	c22.2,0,36.1,7.7,48.4,14.5c10,5.6,18.7,10.4,32.1,10.9c19.6,0.8,40.3-8.1,61.6-26.2c6.3-5.4,15.8-4.6,21.1,1.7
	c5.4,6.3,4.6,15.8-1.7,21.1C456.4,364.5,429.9,375.7,403.8,375.7L403.8,375.7z M403.8,442.4c-1.2,0-2.3,0-3.5-0.1
	c-20.6-0.8-33.8-8.1-45.5-14.6c-10.8-6-19.4-10.8-33.8-10.8h-0.2c-13.9,0-21.2,4.5-30.4,10c-10.5,6.3-23.6,14.3-45.4,13.6
	c-23.2-0.7-36.7-10.3-47.5-18.1c-9.3-6.7-16.6-11.9-30.2-12.5c-14-0.6-22.7,4.3-33.7,10.4c-12.2,6.8-26.1,14.5-47.5,15
	c-27.2,0.7-54.4-10.5-80.8-33.4c-6.3-5.4-7-14.9-1.5-21.2c5.4-6.3,14.9-7,21.2-1.5c20.6,17.8,40.9,26.6,60.4,26.1
	c14.1-0.4,23.2-5.4,33.8-11.3c12.7-7,27.1-15,49.5-14.1c22.6,0.9,35.9,10.5,46.5,18.1c9.7,7,16.8,12.1,30.8,12.5
	c13,0.4,19.7-3.7,29-9.3c10.5-6.4,23.7-14.3,45.9-14.4h0.3c22.2,0,36.1,7.7,48.4,14.5c10,5.6,18.7,10.4,32.1,10.9
	c19.5,0.8,40.3-8.1,61.6-26.2c6.3-5.4,15.8-4.6,21.1,1.7c5.4,6.3,4.6,15.8-1.7,21.1C456.4,431.2,429.9,442.4,403.8,442.4
	L403.8,442.4z"/>
</svg>
